<svg style="display: none;" xmlns="http://www.w3.org/2000/svg" xmlns:xlink="http://www.w3.org/1999/xlink"><symbol id="nc-icon-money-time" viewBox="0 0 64 64"><title>money time</title><g ><path data-color="color-2" fill="currentColor" d="M50,57c-5.702,0-10.456-1.726-13-4.393V56c0,3.925,5.71,7,13,7s13-3.075,13-7v-3.393&#10;&#9;C60.456,55.274,55.702,57,50,57z"/><path data-color="color-2" fill="currentColor" d="M50,49c-5.702,0-10.456-1.726-13-4.393V48c0,3.925,5.71,7,13,7s13-3.075,13-7v-3.393&#10;&#9;C60.456,47.274,55.702,49,50,49z"/><path data-color="color-2" fill="currentColor" d="M50,33c-7.29,0-13,3.075-13,7s5.71,7,13,7s13-3.075,13-7S57.29,33,50,33z"/><path d="M28,1C13.112,1,1,13.112,1,28s12.112,27,27,27c2.422,0,4.766-0.328,7-0.93V40c0-5.131,6.448-9,15-9&#10;&#9;c1.686,0,3.285,0.155,4.774,0.436C54.918,30.31,55,29.165,55,28C55,13.112,42.888,1,28,1z M29,28c0,0.552-0.447,1-1,1H13&#10;&#9;c-0.553,0-1-0.448-1-1s0.447-1,1-1h14V14c0-0.552,0.447-1,1-1s1,0.448,1,1V28z"/></g></symbol><symbol id="nc-icon-net" viewBox="0 0 64 64"><title>net</title><path  d="M62,31h-5.3c-2.3-1-11.4-16-11.5-19l3.1-5.2c0.3-0.5,0.1-1.1-0.3-1.4c-0.5-0.3-1.1-0.1-1.4,0.3l-2.9,4.9&#10;&#9;c-0.1,0.1-0.1,0.1-0.2,0.2c-0.7,0.5-4.6,1.1-11.5,1.1s-10.8-0.6-11.5-1.1c-0.1-0.1-0.1-0.1-0.2-0.2l-2.9-4.9&#10;&#9;c-0.3-0.5-0.9-0.6-1.4-0.3c-0.5,0.3-0.6,0.9-0.3,1.4l3.1,5.2C18.6,15,9.5,30,7.3,31H2c-0.6,0-1,0.4-1,1s0.4,1,1,1h5.3&#10;&#9;c2.3,1,11.4,16,11.5,19l-3.1,5.2c-0.3,0.5-0.1,1.1,0.3,1.4c0.2,0.1,0.3,0.1,0.5,0.1c0.3,0,0.7-0.2,0.9-0.5l2.9-4.9&#10;&#9;c0.1-0.1,0.1-0.1,0.2-0.2c0.7-0.5,4.6-1.1,11.5-1.1s10.8,0.6,11.5,1.1c0,0.1,0.1,0.1,0.2,0.1l3,4.9c0.2,0.3,0.5,0.5,0.9,0.5&#10;&#9;c0.2,0,0.4,0,0.5-0.1c0.5-0.3,0.6-0.9,0.3-1.4L45.2,52c0.1-2.9,9.2-18,11.5-19H62c0.6,0,1-0.4,1-1S62.6,31,62,31z M32,13.9&#10;&#9;c3.5,0,7.5-0.1,10.2-0.7l-4.3,7c0,0,0,0-0.1,0c-0.5,0.2-2.6,0.5-5.8,0.5s-5.3-0.3-5.8-0.5c0,0,0,0-0.1,0l-4.3-7&#10;&#9;C24.5,13.8,28.5,13.9,32,13.9z M30.2,31h-9.3c2-2.4,4-6,4.1-6c0.3-0.5,0.6-1,0.8-1.4L30.2,31z M27.5,22.6c1.1,0.1,2.5,0.2,4.5,0.2&#10;&#9;s3.4-0.1,4.5-0.2L32,30.1L27.5,22.6z M30.2,33l-4.5,7.5c-0.2-0.4-0.4-0.9-0.8-1.4c0-0.1-2.1-3.7-4.1-6H30.2z M32,33.9l4.5,7.4&#10;&#9;c-1.1-0.1-2.5-0.2-4.5-0.2s-3.4,0.1-4.5,0.2L32,33.9z M33.8,33h9.3c-2,2.4-4,6-4.1,6c-0.3,0.5-0.6,1-0.8,1.4L33.8,33z M33.8,31&#10;&#9;l4.5-7.5c0.2,0.4,0.4,0.9,0.8,1.4c0,0.1,2.1,3.7,4.1,6H33.8z M16.9,20.9c1.7-3,2.7-5.1,3.2-6.6l4.3,7.1c-0.4,1.8-5,8.7-6.3,9.6h-8&#10;&#9;C12.8,28,16.1,22.4,16.9,20.9z M20.1,49.7c-0.5-1.4-1.5-3.5-3.2-6.6c-0.8-1.5-4.1-7.1-6.8-10.1h8c1.3,0.8,5.9,7.8,6.3,9.6L20.1,49.7&#10;&#9;z M32,50.1c-3.5,0-7.5,0.1-10.2,0.7l4.3-7c0,0,0,0,0.1,0c0.5-0.2,2.6-0.5,5.8-0.5s5.3,0.3,5.8,0.5c0,0,0,0,0,0l4.3,7&#10;&#9;C39.5,50.2,35.5,50.1,32,50.1z M47.1,43.1c-1.7,3-2.7,5.1-3.2,6.6l-4.3-7.1c0.4-1.8,5-8.7,6.3-9.6h8C51.2,36,47.9,41.6,47.1,43.1z&#10;&#9; M45.9,31c-1.3-0.8-5.9-7.8-6.3-9.6l4.3-7.1c0.5,1.4,1.5,3.5,3.2,6.6c0.8,1.5,4.1,7.1,6.8,10.1H45.9z"/></symbol><symbol id="nc-icon-tie-02" viewBox="0 0 64 64"><title>tie 02</title><g ><path data-color="color-2" fill="currentColor" d="M52.825,32.269L41.478,15.685L47.1,39.578l5.633-6.064&#10;&#9;C53.051,33.171,53.089,32.654,52.825,32.269z"/><path d="M24.382,13h15.236l5.277-10.553c0.155-0.31,0.138-0.678-0.044-0.973C44.668,1.18,44.347,1,44,1H20&#10;&#9;c-0.347,0-0.668,0.18-0.851,0.474c-0.182,0.295-0.199,0.663-0.044,0.973L24.382,13z"/><path d="M46.974,47.771L39.262,15H24.738l-7.711,32.771c-0.079,0.337,0.021,0.691,0.267,0.936l14,14&#10;&#9;C31.488,62.902,31.744,63,32,63s0.512-0.098,0.707-0.293l14-14C46.952,48.462,47.053,48.108,46.974,47.771z"/></g></symbol>

    
<symbol id="bl-logo" viewBox="0 0 4665.8 999.27"><title>blweb-bold-logo</title><path class="a" d="M308.48,303.23c-60.4,0-112.81,19.36-148.13,42.16l-2.28-1.13V5.83H20.2v874l117.36-20.51c41,17.1,86.6,29.64,140.16,29.64,173.2,0,299.68-126.49,299.68-302C577.39,414.9,454.33,303.23,308.48,303.23Zm-35.33,470.6c-39.88,0-85.45-12.54-115.08-29.64V461.62C190,438.82,231,421.72,278.86,421.72c99.13,0,159.52,74.08,159.52,172.08C438.37,692.93,376.85,773.83,273.15,773.83Z" transform="translate(-20.2 -5.83)"/><rect class="a" x="660.9" width="137.88" height="870.54"/><path class="a" d="M1339.69,694.06c-37.6,42.16-91.16,72.93-145.85,72.93-26.21,0-53.55-6.84-74.07-30.77-17.09-19.36-25.07-49-25.07-99.13V315.77H956.84V659.88c0,80.9,16,132.18,50.14,169.78s87.73,59.26,149.26,59.26c75.21,0,135.6-31.9,182.31-75.21l2.28,1.13v61.54h136.73V315.77H1339.69Z" transform="translate(-20.2 -5.83)"/><path class="a" d="M1868.44,303.23c-152.69,0-286,116.23-286,294,0,175.47,132.18,291.7,312.21,291.7,72.93,0,152.68-19.38,205.1-52.41V710C2045,748.76,1979,775,1908.31,775c-94.57,0-168.64-47.85-185.73-141.29h404.5c2.28-14.82,3.42-37.61,3.42-55.84C2130.51,397.8,2007.44,303.23,1868.44,303.23ZM1722.59,538c17.09-84.31,80.9-123.06,144.71-123.06,62.67,0,124.2,38.74,134.45,123.06Z" transform="translate(-20.2 -5.83)"/><path class="b" data-color="color-2" fill="currentColor"  d="M3116.92,720.27V504.9c0-69.49-21.64-117.36-59.25-149.26-42.17-35.33-107.12-52.41-180-52.41-79.76,0-144.71,20.51-189.15,45.57V474.15C2731.78,446.8,2789.9,424,2857.13,424c42.16,0,74.07,9.12,94.57,27.36,18.23,17.08,27.35,42.16,27.35,76.34v33.05a469.89,469.89,0,0,0-108.25-12.54c-58.11,0-115.08,10.26-157.25,38.74s-71.78,74.06-71.78,135.59c0,55.83,23.93,100.26,62.68,128.75,37.59,27.36,84.31,37.61,129.89,37.61,74.07,0,132.18-26.21,166.36-53.56H3003c26.21,35.33,69.5,51.28,115.08,51.28,27.35,0,51.27-5.69,68.37-13.67V764.71c-9.12,4.56-20.51,8-30.77,8C3128.32,772.68,3116.92,751,3116.92,720.27ZM2979,745.34c-27.35,19.36-68.36,34.18-110.52,34.18-49,0-88.88-21.66-88.88-67.23,0-54.69,55.83-72.93,112.81-72.93,27.35,0,61.53,4.56,86.59,11.39Z" transform="translate(-20.2 -5.83)"/><path class="b" data-color="color-2" fill="currentColor"  d="M3553.34,303.23c-60.39,0-112.8,19.36-148.12,42.16l-2.28-1.13V5.83H3265.06v874l117.36-20.51c41,17.1,86.6,29.64,140.16,29.64,173.2,0,299.68-126.49,299.68-302C3822.26,414.9,3699.19,303.23,3553.34,303.23ZM3518,773.83c-39.88,0-85.45-12.54-115.08-29.64V461.62c31.91-22.79,72.93-39.89,120.78-39.89,99.13,0,159.52,74.08,159.52,172.08C3683.24,692.93,3621.71,773.83,3518,773.83Z" transform="translate(-20.2 -5.83)"/><path class="b" data-color="color-2" fill="currentColor" d="M4176.65,303.23c-152.69,0-286,116.23-286,294,0,175.47,132.17,291.7,312.21,291.7,72.93,0,152.68-19.38,205.1-52.41V710c-54.69,38.74-120.78,65-191.43,65-94.57,0-168.64-47.85-185.73-141.29h404.5c2.28-14.82,3.42-37.61,3.42-55.84C4438.72,397.8,4315.65,303.23,4176.65,303.23ZM4030.79,538c17.09-84.31,80.9-123.06,144.71-123.06,62.67,0,124.2,38.74,134.45,123.06Z" transform="translate(-20.2 -5.83)"/><rect class="b" data-color="color-2" fill="currentColor" x="4527.93" width="137.88" height="870.54"/><polygon class="b" data-color="color-2" fill="currentColor" points="2509.87 23.35 2160.34 999.27 2298.2 999.27 2647.71 23.35 2509.87 23.35"/></symbol>    
    

</svg>