<svg xmlns="http://www.w3.org/2000/svg" viewBox="0 0 4677.33 996.51"><defs><style>.a{fill:#005ce8;}.b{fill:#8c95a4;}</style></defs><title>blweb-logo</title><path class="a" d="M282.44,345.83c-68.65,0-125.67,23.27-161.73,46.53l-2.33-1.16v-349H13.67v888.9l101.2-17.46c43.06,17.46,89.61,30.26,143.13,30.26,175.67,0,303.65-130.31,303.65-307.17C561.66,463.34,437.18,345.83,282.44,345.83ZM261.5,851.95c-47.7,0-105.88-15.11-143.11-37.23V493.6c38.39-31.42,89.59-53.54,151.26-53.54,112.85,0,186.16,87.27,186.16,202.46C455.8,762.37,377.85,851.95,261.5,851.95Z" transform="translate(-13.67 -7.83)"/><rect class="a" x="692.29" y="34.33" width="104.71" height="888.9"/><path class="a" d="M1394.74,749.57c-40.72,51.19-108.21,97.72-179.19,97.72-33.73,0-67.46-10.45-90.75-39.54-19.77-23.27-27.91-55.85-27.91-118.68V358.63H992.16v350.2c0,81.45,14,132.64,46.55,171,38.41,44.2,97.74,64,155.92,64,79.1,0,147.77-36.08,197.79-86.11l2.33,1.17v72.13h104.73V358.63H1394.74Z" transform="translate(-13.67 -7.83)"/><path class="a" d="M1928.82,345.83c-153.59,0-285.07,118.68-285.07,299s132.64,299,309.5,299c74.46,0,153.59-20.95,204.76-53.52V778.66c-52.34,39.56-118.66,71-197.79,71-112.85,0-196.63-61.66-211.76-174.51h437.48c2.33-14,3.5-34.9,3.5-52.36C2189.44,443.57,2068.43,345.83,1928.82,345.83Zm-178,246.67c18.6-105.88,100-152.43,175.67-152.43,68.67,0,152.43,38.41,161.73,152.43Z" transform="translate(-13.67 -7.83)"/><path class="b" d="M3044.6,791.46V548.28c0-71-23.26-119.84-57-150.08-40.72-37.23-101.22-52.36-171-52.36-84.92,0-146.58,22.1-190.8,48.86v102.4a298.39,298.39,0,0,1,175.69-57c48.86,0,83.78,11.65,105.86,31.42,22.12,20.95,32.59,52.36,32.59,94.25v47.7a501.25,501.25,0,0,0-122.17-15.13c-59.35,0-117.51,10.47-160.55,38.39-45.38,29.09-75.64,75.64-75.64,139.63,0,55.85,23.27,98.89,60.51,126.83,38.39,29.07,89.59,40.72,136.13,40.72,76.79,0,143.11-32.57,175.69-62.84h2.33c22.1,40.72,65.17,60.51,110.54,60.51,22.1,0,41.89-4.66,55.83-10.47V843.8a80,80,0,0,1-33.73,8.14C3057.4,851.95,3044.6,826.36,3044.6,791.46Zm-104.71,9.3c-34.9,27.93-88.42,50-143.11,50-61.66,0-109.37-27.93-109.37-83.78,0-67.48,69.8-88.42,140.78-88.42,36.08,0,80.28,5.81,111.7,15.13Z" transform="translate(-13.67 -7.83)"/><path class="b" d="M3507.71,345.83c-68.65,0-125.67,23.27-161.73,46.53l-2.33-1.16v-349H3238.94v888.9l101.2-17.46c43.06,17.46,89.61,30.26,143.13,30.26,175.67,0,303.65-130.31,303.65-307.17C3786.93,463.34,3662.45,345.83,3507.71,345.83Zm-20.95,506.11c-47.7,0-105.88-15.11-143.11-37.23V493.6c38.39-31.42,89.59-53.54,151.26-53.54,112.85,0,186.16,87.27,186.16,202.46C3681.06,762.37,3603.12,851.95,3486.76,851.95Z" transform="translate(-13.67 -7.83)"/><path class="b" d="M4176.72,345.83c-153.59,0-285.07,118.68-285.07,299s132.64,299,309.5,299c74.46,0,153.59-20.95,204.77-53.52V778.66c-52.34,39.56-118.66,71-197.79,71-112.87,0-196.63-61.66-211.76-174.51h437.46c2.35-14,3.5-34.9,3.5-52.36C4437.35,443.57,4316.35,345.83,4176.72,345.83Zm-178,246.67c18.62-105.88,100-152.43,175.69-152.43,68.65,0,152.41,38.41,161.73,152.43Z" transform="translate(-13.67 -7.83)"/><rect class="b" x="4572.62" y="34.33" width="104.71" height="888.9"/><path class="b" d="M2688.53,7.83l-356.88,996.51h-102L2586.57,7.83Z" transform="translate(-13.67 -7.83)"/></svg>